<svg version="1.2" baseProfile="tiny-ps" xmlns="http://www.w3.org/2000/svg" viewBox="0 0 275 275" width="275" height="275"><title>New Project</title><style>tspan { white-space:pre }.shp0 { fill: #8dba69 } </style><path fill-rule="evenodd" class="shp0" d="M137 275C73.41 275 22 213.54 22 137.5C22 61.46 73.41 0 137 0C200.59 0 252 61.46 252 137.5C252 213.54 200.59 275 137 275ZM186.25 30.52C70 -32.38 39 133.01 39 133.01C39 133.01 86 19.52 186.25 30.52ZM88 246.57C204.25 309.47 235.25 144.08 235.25 144.08C235.25 144.08 188.25 257.57 88 246.57ZM121.2 79.79L89.56 79.79L73 109.3L137 224.93L201 108.5L184.44 79.79L152.81 79.79L137 107.7L121.2 79.79Z" /></svg>